<svg width="48" height="48" viewBox="0 0 48 48" fill="none" xmlns="http://www.w3.org/2000/svg">
<g id="Group 100">
<g id="cv">
<path id="Subtract" fill-rule="evenodd" clip-rule="evenodd" d="M5 7C5 5.34315 6.34315 4 8 4H40C41.6569 4 43 5.34315 43 7V39C43 40.6569 41.6569 42 40 42H8C6.34315 42 5 40.6569 5 39V7ZM27.5009 31L24.2449 21.1334L23 20.9148V17H30.6436V20.9148L29.747 21.1334L31.1573 26.5387L32.5763 21.1334L31.6709 20.9148V17H38V20.9148L36.7638 21.1334L33.5078 31H27.5009ZM14.9135 26.1325C14.4467 25.6671 14.2133 24.9276 14.2133 23.9139C14.2133 23.4549 14.2795 23.0469 14.4121 22.6899C14.5504 22.3329 14.7291 22.0332 14.9481 21.791C15.1729 21.5423 15.4265 21.3543 15.7089 21.2268C15.9971 21.0993 16.2911 21.0355 16.5908 21.0355C16.9539 21.0355 17.3026 21.1375 17.6369 21.3415C17.9712 21.5392 18.2767 21.8484 18.5533 22.2691H21V18.1093C20.7579 17.9882 20.4784 17.8638 20.1614 17.7363C19.8501 17.6025 19.487 17.4813 19.072 17.373C18.6628 17.2646 18.1988 17.1753 17.6801 17.1052C17.1671 17.0351 16.5908 17 15.951 17C14.902 17 13.951 17.1339 13.098 17.4016C12.245 17.6694 11.513 18.087 10.902 18.6544C10.2968 19.2154 9.82709 19.9326 9.4928 20.806C9.16427 21.673 9 22.709 9 23.9139C9 25.1316 9.17867 26.1931 9.53602 27.0984C9.89914 27.9973 10.3948 28.7432 11.0231 29.3361C11.6513 29.929 12.3919 30.3561 13.245 30.6175C14.098 30.8725 15.0202 31 16.0115 31C17.6081 31 19.2709 30.7099 21 30.1298V25.9699C20.1412 26.2568 19.3689 26.4704 18.683 26.6107C18.0029 26.7509 17.4092 26.821 16.902 26.821C16.0432 26.821 15.3804 26.5915 14.9135 26.1325Z" fill="white"/>
</g>
</g>
</svg>
